<svg viewBox="0 0 72 72" xmlns="http://www.w3.org/2000/svg"><path d="m53.1887 52.843h-32.6093c-.3752 0-.6794-.2955-.6794-.66v-31.68c0-.3645.3042-.66.6794-.66h21.5062 1.2918 2.0097 6.6745 1.1271c.3752 0 .6794.2955.6794.66v31.68c0 .3645-.3042.66-.6794.66z" fill="#b1cc33"/><path d="m30.66 30.538c-1.85-2.61-6.18-.11-4.32 2.52 3.19 4.51 5.87 9.25 7.91 14.38.84 2.09 4.23 2.65 4.83 0 2.83-12.6 8.21-27.17 20.68-33 2.91-1.36.38-5.67-2.52-4.32-11.43 5.35-17.68 17.36-21.23 29.25-1.56-3.05-3.33-5.99-5.35-8.83z" fill="#fff"/><g style="fill:none;stroke:#000;stroke-linecap:round;stroke-linejoin:round;stroke-miterlimit:10;stroke-width:2"><path d="m53 22.642v30.476c0 .3645-.2955.66-.66.66h-31.68c-.3645 0-.66-.2955-.66-.66v-31.68c0-.3645.2955-.66.66-.66h20.0814.5672"/><path d="m30.66 30.538c-1.85-2.61-6.18-.11-4.32 2.52 3.19 4.51 5.87 9.25 7.91 14.38.84 2.09 4.23 2.65 4.83 0 2.83-12.6 8.21-27.17 20.68-33 2.91-1.36.38-5.67-2.52-4.32-11.43 5.35-17.68 17.36-21.23 29.25-1.56-3.05-3.33-5.99-5.35-8.83z"/></g></svg>