<svg viewBox="0 0 72 72" xmlns="http://www.w3.org/2000/svg"><path d="m36 11c-13.8066 0-25 11.1926-25 25 0 13.8066 11.1934 25 25 25 13.8065 0 25-11.1934 25-25 0-13.8074-11.1935-25-25-25z" fill="#ea5a47"/><path d="m55.5195 39.4297c.1986-1.1263.3081-2.2831.3081-3.4659 0-1.171-.1078-2.316-.3014-3.4306h-39.0524c-.1936 1.1146-.3014 2.2596-.3014 3.4306 0 1.1828.1095 2.3396.3081 3.4659z" fill="#fff"/><g style="fill:none;stroke:#000;stroke-linecap:round;stroke-linejoin:round;stroke-miterlimit:10;stroke-width:2"><path d="m36 11c-13.8066 0-25 11.1926-25 25 0 13.8066 11.1934 25 25 25 13.8065 0 25-11.1934 25-25 0-13.8074-11.1935-25-25-25z"/><path d="m55.5195 39.4297c.1986-1.1263.3081-2.2831.3081-3.4659 0-1.171-.1078-2.316-.3014-3.4306h-39.0524c-.1936 1.1146-.3014 2.2596-.3014 3.4306 0 1.1828.1095 2.3396.3081 3.4659z"/></g></svg>